Coordinates
version=1
nRows=40
nColumns=38
inDegrees=no

Units are S.I. units (second, meters, Newtons, ...)
If the header above contains a line with 'inDegrees', this indicates whether rotational values are in degrees (yes) or radians (no).

endheader
time	pelvis_tilt	pelvis_list	pelvis_rotation	pelvis_tx	pelvis_ty	pelvis_tz	hip_flexion_r	hip_adduction_r	hip_rotation_r	knee_angle_r	ankle_angle_r	subtalar_angle_r	mtp_angle_r	hip_flexion_l	hip_adduction_l	hip_rotation_l	knee_angle_l	ankle_angle_l	subtalar_angle_l	mtp_angle_l	lumbar_extension	lumbar_bending	lumbar_rotation	arm_flex_r	arm_add_r	arm_rot_r	elbow_flex_r	pro_sup_r	wrist_flex_r	wrist_dev_r	arm_flex_l	arm_add_l	arm_rot_l	elbow_flex_l	pro_sup_l	wrist_flex_l	wrist_dev_l
5.565	-0.264379	-0.0435202	-3.14678	-0.228044	0.961661	-0.00442246	-0.469607	0.0135928	-0.0975019	0.271705	0.316079	0	0	0.165839	0.0489285	-0.106123	0.189249	-0.0168247	0	0	-0.490633	-0.0837676	0.153001	0.713869	-0.353944	1.54686	0.621973	0.425407	0	0	0.105003	-0.22655	1.5708	0.38233	1.20106e-05	0	0
5.57499	-0.266356	-0.0468825	-3.1537	-0.230377	0.961316	-0.00323325	-0.476412	0.00339697	-0.0974092	0.284394	0.310588	0	0	0.160364	0.0544805	-0.104554	0.200577	-0.0299419	0	0	-0.488269	-0.0898909	0.156336	0.705962	-0.350526	1.55024	0.620217	0.428173	0	0	0.10458	-0.225757	1.5708	0.381217	2.0188e-05	0	0
5.58498	-0.268158	-0.0503925	-3.16045	-0.232807	0.961059	-0.00195782	-0.481648	-0.00750755	-0.0984202	0.299467	0.302924	0	0	0.155078	0.0599206	-0.105129	0.213014	-0.0419878	0	0	-0.48563	-0.0959447	0.158982	0.69738	-0.347101	1.55361	0.618283	0.430403	0	0	0.104221	-0.225108	1.5708	0.380269	3.00598e-05	0	0
5.59497	-0.269722	-0.0540067	-3.16696	-0.2353	0.960891	-0.000601418	-0.484991	-0.0191242	-0.100636	0.317271	0.292818	0	0	0.150029	0.0652062	-0.107754	0.226265	-0.0522988	0	0	-0.482733	-0.101861	0.160851	0.688198	-0.343672	1.55686	0.61621	0.432085	0	0	0.10399	-0.224615	1.5708	0.379506	4.14162e-05	0	0
5.60496	-0.270978	-0.0576831	-3.17316	-0.237816	0.960812	0.000830454	-0.486116	-0.031452	-0.104135	0.338126	0.280024	0	0	0.145267	0.070317	-0.112202	0.24007	-0.0603094	0	0	-0.479593	-0.107568	0.161834	0.678513	-0.340235	1.55987	0.614027	0.433193	0	0	0.103957	-0.224301	1.5708	0.378957	5.37479e-05	0	0
5.61496	-0.271853	-0.0613889	-3.17896	-0.240316	0.960819	0.00233256	-0.484718	-0.0444882	-0.108965	0.362303	0.264375	0	0	0.14082	0.0752688	-0.118112	0.254169	-0.0656186	0	0	-0.476225	-0.113004	0.161818	0.668429	-0.336782	1.56259	0.611753	0.433689	0	0	0.104198	-0.224195	1.5708	0.378659	6.6133e-05	0	0
5.62495	-0.272289	-0.0650954	-3.18429	-0.242757	0.960907	0.00389944	-0.48055	-0.0582217	-0.115109	0.390002	0.245829	0	0	0.136678	0.0801036	-0.125033	0.268275	-0.0680425	0	0	-0.472657	-0.118111	0.160704	0.658058	-0.333304	1.56495	0.609399	0.433534	0	0	0.104798	-0.224332	1.5708	0.378659	7.71139e-05	0	0
5.63494	-0.27225	-0.0687732	-3.18908	-0.245097	0.961071	0.00552461	-0.473432	-0.0726231	-0.122455	0.421321	0.224455	0	0	0.132793	0.0848733	-0.132486	0.282084	-0.0676121	0	0	-0.468936	-0.122841	0.158422	0.647512	-0.329803	1.56692	0.606961	0.432701	0	0	0.105855	-0.224748	1.5708	0.379003	8.45742e-05	0	0
5.64493	-0.271733	-0.0723912	-3.19331	-0.247296	0.961306	0.00719976	-0.46328	-0.0876401	-0.130779	0.456249	0.200437	0	0	0.129083	0.0896276	-0.140021	0.295296	-0.064525	0	0	-0.465132	-0.127159	0.154951	0.63689	-0.326284	1.56849	0.604422	0.431184	0	0	0.107468	-0.225475	1.5708	0.379735	8.56291e-05	0	0
5.65492	-0.270766	-0.0759166	-3.19699	-0.24932	0.961604	0.00891448	-0.450106	-0.103194	-0.139754	0.494655	0.174072	0	0	0.125439	0.0944045	-0.147258	0.307639	-0.0590957	0	0	-0.461325	-0.13104	0.150324	0.626283	-0.322767	1.56968	0.601763	0.428998	0	0	0.109733	-0.22654	1.5708	0.380893	7.6551e-05	0	0
5.66491	-0.269406	-0.0793165	-3.20017	-0.251141	0.96196	0.0106565	-0.434014	-0.119179	-0.148984	0.536292	0.145758	0	0	0.121734	0.0992289	-0.1539	0.318882	-0.0517223	0	0	-0.457605	-0.13448	0.144631	0.615763	-0.319282	1.57052	0.598962	0.426166	0	0	0.112742	-0.227962	1.5708	0.382509	5.27592e-05	0	0
5.6749	-0.267736	-0.0825559	-3.20293	-0.252741	0.962368	0.0124117	-0.415193	-0.135456	-0.158021	0.580795	0.115979	0	0	0.117829	0.10411	-0.15974	0.328837	-0.0428477	0	0	-0.454068	-0.137487	0.138013	0.605384	-0.315869	1.57108	0.595994	0.422725	0	0	0.116574	-0.229757	1.5708	0.384602	8.91006e-06	0	0
5.68489	-0.265859	-0.0855957	-3.20537	-0.254106	0.962823	0.0141633	-0.393901	-0.151851	-0.166407	0.627689	0.0852854	0	0	0.113577	0.109035	-0.164668	0.337362	-0.0329094	0	0	-0.45081	-0.140082	0.130652	0.595181	-0.312565	1.57142	0.592825	0.418722	0	0	0.121298	-0.231935	1.5708	0.387179	-6.08656e-05	0	0
5.69488	-0.263887	-0.0883938	-3.20764	-0.25523	0.963324	0.0158909	-0.370448	-0.168163	-0.173714	0.676404	0.0542633	0	0	0.108832	0.113969	-0.168666	0.344359	-0.0223042	0	0	-0.447922	-0.1423	0.12276	0.585172	-0.309402	1.57159	0.589413	0.414214	0	0	0.126964	-0.23451	1.5708	0.390236	-0.000162526	0	0
5.70487	-0.261931	-0.0909029	-3.20988	-0.256113	0.963869	0.0175712	-0.345168	-0.184168	-0.179581	0.726298	0.0235145	0	0	0.103461	0.118856	-0.171803	0.349768	-0.0113752	0	0	-0.445486	-0.14418	0.114568	0.575363	-0.306402	1.57163	0.585715	0.409262	0	0	0.133608	-0.237491	1.5708	0.39375	-0.000301422	0	0
5.71487	-0.260089	-0.0930675	-3.21223	-0.256758	0.96446	0.0191816	-0.318407	-0.199629	-0.183745	0.776682	-0.00636417	0	0	0.0973575	0.123614	-0.174209	0.353572	-0.000409123	0	0	-0.443567	-0.145755	0.106301	0.565753	-0.303584	1.57159	0.581695	0.403922	0	0	0.141245	-0.24088	1.5708	0.397681	-0.000481286	0	0
5.72486	-0.258443	-0.0948172	-3.21481	-0.257171	0.965102	0.0207019	-0.290515	-0.214286	-0.186049	0.826831	-0.0347933	0	0	0.0904454	0.128136	-0.176041	0.355794	0.010362	0	0	-0.442214	-0.14703	0.0981637	0.556332	-0.30096	1.5715	0.57732	0.39823	0	0	0.149875	-0.244668	1.57079	0.401966	-0.000702848	0	0
5.73485	-0.257054	-0.0960622	-3.21771	-0.257356	0.9658	0.0221148	-0.261841	-0.227854	-0.186439	0.876009	-0.0612063	0	0	0.0826853	0.132283	-0.17747	0.356502	0.0207633	0	0	-0.441463	-0.147977	0.0903212	0.547091	-0.29853	1.57139	0.572559	0.392186	0	0	0.159485	-0.24884	1.57079	0.406533	-0.000962039	0	0
5.74484	-0.255961	-0.0967019	-3.22097	-0.257322	0.966561	0.0234064	-0.232728	-0.240046	-0.184965	0.923511	-0.0850059	0	0	0.0740702	0.135898	-0.178656	0.355792	0.0306716	0	0	-0.441329	-0.148535	0.0828924	0.538019	-0.296284	1.57127	0.567389	0.385756	0	0	0.170043	-0.253385	1.57078	0.411313	-0.00124779	0	0
5.75483	-0.255163	-0.0966582	-3.22457	-0.257078	0.967391	0.0245729	-0.203496	-0.250613	-0.181806	0.968704	-0.105512	0	0	0.0646424	0.138852	-0.179696	0.353785	0.0400002	0	0	-0.441792	-0.148628	0.07591	0.529093	-0.294208	1.57116	0.561809	0.378876	0	0	0.181495	-0.258293	1.57077	0.416244	-0.00153944	0	0
5.76482	-0.254585	-0.0959308	-3.22834	-0.256643	0.968287	0.0256306	-0.174409	-0.259423	-0.177329	1.01106	-0.121974	0	0	0.0545321	0.141119	-0.180548	0.350624	0.04868	0	0	-0.442743	-0.148191	0.0692627	0.520258	-0.292292	1.57105	0.55584	0.371472	0	0	0.193749	-0.263556	1.57077	0.421277	-0.00180391	0	0
5.77481	-0.254107	-0.0945778	-3.23204	-0.256039	0.969239	0.02661	-0.145673	-0.266458	-0.172021	1.05017	-0.133715	0	0	0.0439253	0.14275	-0.181072	0.346457	0.0566682	0	0	-0.44402	-0.147167	0.062741	0.511447	-0.290533	1.57097	0.549527	0.363463	0	0	0.206687	-0.269167	1.57076	0.426369	-0.00199277	0	0
5.7848	-0.253612	-0.0926659	-3.2354	-0.255291	0.970237	0.0275418	-0.117459	-0.271756	-0.166385	1.08569	-0.140349	0	0	0.0330004	0.143802	-0.181106	0.34143	0.0639555	0	0	-0.44547	-0.145503	0.0561222	0.502595	-0.288931	1.5709	0.542935	0.354791	0	0	0.220189	-0.275115	1.57075	0.43149	-0.00203961	0	0
5.79479	-0.253024	-0.0902503	-3.23823	-0.254416	0.971274	0.0284508	-0.0899289	-0.275377	-0.160887	1.11733	-0.141922	0	0	0.0218923	0.144319	-0.180511	0.335681	0.0705622	0	0	-0.446984	-0.14315	0.0492181	0.493656	-0.287498	1.57085	0.53615	0.34544	0	0	0.234145	-0.281392	1.57074	0.436623	-0.00185817	0	0
5.80478	-0.252308	-0.0873742	-3.24035	-0.253431	0.972342	0.0293543	-0.0632548	-0.277403	-0.155929	1.14482	-0.138896	0	0	0.010683	0.144325	-0.179181	0.329332	0.0765302	0	0	-0.448504	-0.140073	0.0418931	0.484601	-0.286251	1.57081	0.529267	0.335445	0	0	0.248464	-0.28799	1.57073	0.441769	-0.00134187	0	0
5.81478	-0.25147	-0.0840761	-3.24165	-0.252349	0.973435	0.0302619	-0.0375981	-0.27793	-0.151827	1.16792	-0.132032	0	0	-0.000589869	0.143837	-0.17706	0.322493	0.0819152	0	0	-0.450014	-0.136264	0.0340775	0.475411	-0.285219	1.57079	0.522393	0.324874	0	0	0.263082	-0.294902	1.57073	0.446943	-0.000365623	0	0
5.82477	-0.250528	-0.0804045	-3.2421	-0.251178	0.974544	0.0311759	-0.0130857	-0.277081	-0.148799	1.18651	-0.122216	0	0	-0.0119084	0.14288	-0.174139	0.315255	0.0867821	0	0	-0.451518	-0.131756	0.0257645	0.466073	-0.28443	1.57077	0.515636	0.313796	0	0	0.27796	-0.302119	1.57073	0.452171	0.00120905	0	0
5.83476	-0.249505	-0.0764243	-3.2417	-0.249926	0.975659	0.0320954	0.0101937	-0.275012	-0.146988	1.2005	-0.110313	0	0	-0.0232608	0.141497	-0.17044	0.307692	0.0911982	0	0	-0.453022	-0.126616	0.0169904	0.456575	-0.283913	1.57076	0.509087	0.302271	0	0	0.293072	-0.309628	1.57074	0.457484	0.00352426	0	0
5.84475	-0.248427	-0.0722131	-3.24047	-0.248599	0.976766	0.0330169	0.0321873	-0.2719	-0.146462	1.20992	-0.0970866	0	0	-0.0346392	0.139751	-0.166015	0.299864	0.0952297	0	0	-0.454534	-0.120944	0.00783004	0.44691	-0.28369	1.57076	0.502816	0.290356	0	0	0.30841	-0.317408	1.57077	0.462918	0.00671007	0	0
5.85474	-0.247319	-0.0678539	-3.23851	-0.247201	0.977853	0.0339342	0.0528784	-0.267929	-0.147213	1.21485	-0.0831573	0	0	-0.0460353	0.137712	-0.160952	0.291825	0.0989414	0	0	-0.456063	-0.11486	-0.00160212	0.43707	-0.283775	1.57076	0.496862	0.278116	0	0	0.323974	-0.325425	1.57082	0.468507	0.0108614	0	0
5.86473	-0.246202	-0.0634317	-3.23592	-0.245738	0.978901	0.034839	0.0722837	-0.263281	-0.149166	1.21543	-0.0690072	0	0	-0.0574369	0.135458	-0.155369	0.283628	0.102399	0	0	-0.457618	-0.108502	-0.0111618	0.427056	-0.284175	1.57077	0.491238	0.265633	0	0	0.339771	-0.333632	1.57089	0.474272	0.0160064	0	0
5.87472	-0.245098	-0.0590262	-3.23287	-0.244213	0.979897	0.0357217	0.090445	-0.258126	-0.152185	1.21186	-0.0550048	0	0	-0.0688287	0.13307	-0.149413	0.27533	0.105672	0	0	-0.459206	-0.102012	-0.0206851	0.416869	-0.284888	1.57077	0.485931	0.253015	0	0	0.355805	-0.34197	1.57099	0.480213	0.022072	0	0
5.88471	-0.244034	-0.0547026	-3.22951	-0.242632	0.980825	0.0365716	0.107417	-0.2526	-0.156077	1.20437	-0.04143	0	0	-0.0801968	0.130617	-0.143252	0.266997	0.108839	0	0	-0.460841	-0.0955279	-0.0299958	0.406521	-0.285905	1.57078	0.480906	0.240378	0	0	0.372073	-0.350369	1.57112	0.486318	0.0289092	0	0
5.8947	-0.243034	-0.0505091	-3.22604	-0.241	0.981673	0.0373774	0.123264	-0.246801	-0.160611	1.19318	-0.0284979	0	0	-0.0915252	0.128155	-0.137064	0.258707	0.11198	0	0	-0.462535	-0.0891711	-0.0389154	0.396029	-0.287205	1.57078	0.476108	0.227844	0	0	0.388563	-0.35875	1.57128	0.492552	0.0363317	0	0
5.90469	-0.242115	-0.0464786	-3.22265	-0.239322	0.982428	0.0381279	0.138054	-0.240785	-0.165533	1.17855	-0.016383	0	0	-0.102791	0.125732	-0.131022	0.250546	0.115171	0	0	-0.464298	-0.0830462	-0.0472814	0.38541	-0.28876	1.57079	0.471471	0.215532	0	0	0.405244	-0.367036	1.57148	0.498867	0.0441336	0	0
5.91469	-0.241282	-0.042631	-3.21949	-0.237604	0.983084	0.0388127	0.151863	-0.234577	-0.170581	1.16071	-0.0052365	0	0	-0.113958	0.123384	-0.125287	0.242602	0.118483	0	0	-0.466127	-0.0772365	-0.0549606	0.374689	-0.290529	1.57079	0.466925	0.203538	0	0	0.422069	-0.375151	1.5717	0.505208	0.0520968	0	0
5.92468	-0.240526	-0.0389757	-3.21673	-0.235853	0.983632	0.0394229	0.164764	-0.228172	-0.175509	1.13988	0.00480803	0	0	-0.124985	0.121138	-0.119994	0.234957	0.121979	0	0	-0.46801	-0.0718025	-0.0618569	0.363894	-0.292463	1.57079	0.462397	0.19193	0	0	0.438976	-0.383033	1.57194	0.511521	0.0600186	0	0
5.93467	-0.239829	-0.0355132	-3.21446	-0.234076	0.984069	0.0399521	0.176826	-0.221548	-0.180099	1.11627	0.0136347	0	0	-0.135822	0.119014	-0.115251	0.227683	0.125715	0	0	-0.469927	-0.0667809	-0.0679153	0.353061	-0.294506	1.57079	0.45782	0.180754	0	0	0.455892	-0.390627	1.57217	0.517758	0.0677203	0	0
5.94466	-0.239162	-0.0322386	-3.21275	-0.232279	0.984393	0.0403964	0.1881	-0.214674	-0.184183	1.09004	0.0211434	0	0	-0.146414	0.117023	-0.111125	0.220842	0.129738	0	0	-0.471848	-0.0621871	-0.0731199	0.342229	-0.296602	1.5708	0.453136	0.170041	0	0	0.472733	-0.397889	1.57235	0.52387	0.0750497	0	0
5.95465	-0.23849	-0.0291469	-3.21165	-0.230467	0.984605	0.0407544	0.198625	-0.207519	-0.187646	1.06135	0.0272536	0	0	-0.15671	0.115174	-0.107647	0.214487	0.134083	0	0	-0.473738	-0.0580229	-0.0774896	0.331433	-0.298698	1.5708	0.448302	0.15979	0	0	0.489412	-0.404784	1.57245	0.529822	0.0818917	0	0
